<?xml version="1.0" encoding="utf-8"?>
<!-- Generator: Adobe Illustrator 25.2.3, SVG Export Plug-In . SVG Version: 6.00 Build 0)  -->
<svg version="1.1" id="Layer_1" xmlns="http://www.w3.org/2000/svg" xmlns:xlink="http://www.w3.org/1999/xlink" x="0px" y="0px"
	 viewBox="0 0 320 102.4" style="enable-background:new 0 0 320 102.4;" xml:space="preserve">
<style type="text/css">
	.st0{fill:#0A529D;}
</style>
<g>
	<path id="XMLID_2_" class="st0" d="M26.4,80.6l-2.5,0.5l-0.7,6.1l0,0l-3.1-5.3l-2.5,0.5l1.6,7.5l1.5-0.3l-1.3-6.2l0,0l3.4,5.8
		l1.5-0.3l0.8-6.7l0,0l1.3,6.2l1.5-0.3L26.4,80.6z M82.1,81.9l-3.1,5.3l0,0l-0.7-6.1l-2.5-0.5l-1.6,7.5l1.5,0.3l1.3-6.2l0,0l0.8,6.7
		l1.5,0.3l3.4-5.8h0l-1.3,6.2l1.5,0.3l1.6-7.5L82.1,81.9z M32.9,79.7l-1.8,0.2L29,88l1.7-0.2l0.5-1.8l3.2-0.4l0.9,1.7L37,87
		L32.9,79.7z M31.4,84.7l0.8-3.3h0l1.5,3L31.4,84.7z M59.9,78.9l-0.2,5.8h0l-2.8-5.9l-2-0.1l-0.3,7.7l1.5,0.1l0.2-5.8l0,0l2.8,5.9
		l2,0.1l0.3-7.7L59.9,78.9z M50.3,78.7l-1.8,0l-3,7.7l1.7,0l0.7-1.8l3.2,0l0.7,1.8l1.8,0L50.3,78.7z M48.3,83.4l1.1-3.2h0l1.2,3.2
		L48.3,83.4z M67.7,79.5l-1.8-0.2L62,86.7l1.7,0.2l0.9-1.7l3.2,0.3l0.5,1.8l1.8,0.2L67.7,79.5z M65.2,84l1.5-3h0l0.8,3.3L65.2,84z
		 M72.1,80.1L71,87.7l1.6,0.2l1.1-7.6L72.1,80.1z M44,78.8l-1.6,0.1l0.2,3.1l-3.2,0.2l-0.2-3.1l-1.6,0.1l0.5,7.7l1.6-0.1l-0.2-3.4
		l3.2-0.2l0.2,3.4l1.6-0.1L44,78.8z M75.2,66.4l-9.9-44.2h-1.7L50.9,58.7L38.2,22.2h-1.7l-9.9,44.2c-0.2,1-2,3-2.4,4h7.6l6.6-32
		l11.6,33.4h1.7l11.6-33.4l6.6,32h7.6C77.2,69.4,75.4,67.4,75.2,66.4z M59.2,23.6H58l-7.1,20.3l-7-20.3h-1.2l-1,5l9.3,26.9l9.3-26.9
		L59.2,23.6z M38,66.4l3.2-16.9l-2.4-7l-5.5,26.7h5.2C38.1,68,37.8,67,38,66.4z M98.8,48l-5,0.2l0.1,2.5l0.6,0l-0.1-1.9l1.6-0.1
		l0.1,1.7l0.6,0l-0.1-1.7l1.4-0.1l0.1,1.9l0.6,0L98.8,48z M93.7,55l-0.1,0.6l4.9,0.5l0.1-0.6L93.7,55z M96,57
		c-1.5-0.3-2.7,0.3-2.9,1.7c-0.2,1.4,0.7,2.3,2.1,2.6c1.4,0.3,2.7-0.3,2.9-1.7C98.4,58.3,97.5,57.3,96,57z M97.6,59.5
		c-0.2,1-1.2,1.3-2.2,1.1c-1-0.2-1.8-0.8-1.6-1.8c0.2-1,1.2-1.3,2.2-1.1C96.9,57.9,97.7,58.5,97.6,59.5z M8,54.3l-1.3-0.5l-0.1-2.4
		l1.2-0.6l0-0.8L3,52.3l0,0.7L8,55L8,54.3z M3.6,52.7l2.4-1.1l0.1,2L3.6,52.7z M8.1,46.4l0.1-0.9l-5-0.4l-0.1,0.7l4,0.3v0L3,47.9
		l-0.1,1l4.9,0.4L8,48.6l-4.1-0.3l0,0L8.1,46.4z M8.6,58.8l-2.2,0.4L6,56.8l2.2-0.4l-0.1-0.7l-4.9,0.8l0.1,0.7l2.1-0.3l0.4,2.3
		l-2.1,0.3l0.1,0.7l4.9-0.8L8.6,58.8z M9,40.4l-2.5-0.5l-0.3,1.7l0.6,0.1l0.2-1L8.4,41c0,0.2,0,0.3-0.1,0.8c-0.2,1-1.1,1.7-2.3,1.4
		C5,43,4.3,42.1,4.6,41c0.1-0.6,0.3-1,0.6-1.3l-0.7-0.2c-0.2,0.4-0.4,0.7-0.5,1.4c-0.3,1.5,0.5,2.8,2,3.1c1.6,0.3,2.8-0.5,3.1-2
		C9.1,41.2,9.1,40.7,9,40.4z M9.3,61.5c-0.1-0.3-0.2-0.7-0.5-1l-0.7,0.2c0.2,0.2,0.4,0.6,0.5,1c0.3,1-0.3,2-1.4,2.3
		c-1.1,0.3-2.1-0.2-2.4-1.3c-0.1-0.3-0.1-0.7,0-1.1l-0.7,0.1c-0.1,0.4,0,0.8,0.1,1.1c0.4,1.5,1.7,2.3,3.2,1.9
		C9,64.3,9.7,63,9.3,61.5z M9.8,36.3l-0.6,2l-1.6-0.5L8.2,36l-0.6-0.2L7,37.6l-1.4-0.4l0.6-2L5.7,35l-0.8,2.7l4.7,1.5l0.8-2.7
		L9.8,36.3z M26.4,80.6l-2.5,0.5l-0.7,6.1l0,0l-3.1-5.3l-2.5,0.5l1.6,7.5l1.5-0.3l-1.3-6.2l0,0l3.4,5.8l1.5-0.3l0.8-6.7l0,0l1.3,6.2
		l1.5-0.3L26.4,80.6z M34.4,10.3c-0.2,0.2-0.6,0.5-0.9,0.7c-0.9,0.4-2,0.1-2.5-1c-0.5-1-0.1-2.1,0.9-2.6c0.3-0.1,0.7-0.2,1-0.2
		l-0.2-0.7c-0.4,0-0.8,0.1-1.1,0.3c-1.4,0.6-2,2-1.3,3.4c0.7,1.4,2,1.9,3.5,1.3c0.3-0.1,0.7-0.3,0.9-0.6L34.4,10.3z M32.9,79.7
		l-1.8,0.2L29,88l1.7-0.2l0.5-1.8l3.2-0.4l0.9,1.7L37,87L32.9,79.7z M31.4,84.7l0.8-3.3h0l1.5,3L31.4,84.7z M37.7,4.8L37,5l0.6,2
		l-2.3,0.7l-0.6-2L34.1,6l1.5,4.7l0.7-0.2l-0.7-2.2l2.3-0.7l0.7,2.2l0.7-0.2L37.7,4.8z M38,66.4l3.2-16.9l-2.4-7l-5.5,26.7h5.2
		C38.1,68,37.8,67,38,66.4z M44,78.8l-1.6,0.1l0.2,3.1l-3.2,0.2l-0.2-3.1l-1.6,0.1l0.5,7.7l1.6-0.1l-0.2-3.4l3.2-0.2l0.2,3.4
		l1.6-0.1L44,78.8z M41.7,3.8L41,4l-1.1,5.3l0.7-0.2l0.2-1.3l2.4-0.5L44,8.4l0.8-0.2L41.7,3.8z M41,7.2l0.5-2.6l1.5,2.2L41,7.2z
		 M48.2,7.3l-2.1,0.2l-0.4-4.3L45,3.3l0.5,4.9L48.3,8L48.2,7.3z M51.8,7.3l-2.1,0L49.7,3L49,3l0.1,5l2.8,0L51.8,7.3z M50.3,78.7
		l-1.8,0l-3,7.7l1.7,0l0.7-1.8l3.2,0l0.7,1.8l1.8,0L50.3,78.7z M48.3,83.4l1.1-3.2h0l1.2,3.2L48.3,83.4z M55.7,3.8l0-0.6L53,3
		l-0.4,5l2.8,0.2l0-0.6l-2.1-0.2l0.1-1.6l1.9,0.1l0-0.6l-1.9-0.1l0.1-1.4L55.7,3.8z M59.2,23.6H58l-7.1,20.3l-7-20.3h-1.2l-1,5
		l9.3,26.9l9.3-26.9L59.2,23.6z M60.5,3.9l-0.7,3.9l0,0l-1.5-4.3l-0.9-0.2l-0.9,4.9l0.7,0.1l0.7-4h0l1.5,4.4l0.9,0.2L61.3,4
		L60.5,3.9z M59.9,78.9l-0.2,5.8h0l-2.8-5.9l-2-0.1l-0.3,7.7l1.5,0.1l0.2-5.8l0,0l2.8,5.9l2,0.1l0.3-7.7L59.9,78.9z M65.3,5.1
		c-1.4-0.4-2.8,0.2-3.3,1.7c-0.5,1.5,0.2,2.8,1.7,3.2c0.7,0.2,1.2,0.2,1.5,0.2l0.8-2.5l-1.7-0.5l-0.2,0.6l1,0.3l-0.4,1.4
		c-0.2,0-0.3,0-0.8-0.2c-1-0.3-1.6-1.3-1.2-2.4c0.3-1.1,1.3-1.6,2.4-1.3c0.6,0.2,0.9,0.4,1.2,0.7l0.3-0.7C66.3,5.5,66,5.3,65.3,5.1z
		 M68.6,69.1l-5.5-26.7l-2.4,7l3.2,16.9c0.2,0.7-0.1,1.7-0.4,2.8H68.6z M67.7,79.5l-1.8-0.2L62,86.7l1.7,0.2l0.9-1.7l3.2,0.3
		l0.5,1.8l1.8,0.2L67.7,79.5z M65.2,84l1.5-3h0l0.8,3.3L65.2,84z M70.8,7.9L71,7.3l-2.6-1.1l-1.9,4.6l2.6,1.1l0.2-0.6l-1.9-0.8L68,9
		l1.7,0.7L70,9.2l-1.7-0.7l0.6-1.3L70.8,7.9z M72.1,80.1L71,87.7l1.6,0.2l1.1-7.6L72.1,80.1z M75.2,66.4l-9.9-44.2h-1.7L50.9,58.7
		L38.2,22.2h-1.7l-9.9,44.2c-0.2,1-2,3-2.4,4h7.6l6.6-32l11.6,33.4h1.7l11.6-33.4l6.6,32h7.6C77.2,69.4,75.4,67.4,75.2,66.4z
		 M82.1,81.9l-3.1,5.3l0,0l-0.7-6.1l-2.5-0.5l-1.6,7.5l1.5,0.3l1.3-6.2l0,0l0.8,6.7l1.5,0.3l3.4-5.8h0l-1.3,6.2l1.5,0.3l1.6-7.5
		L82.1,81.9z M96.5,36.2c0-0.4,0-0.7-0.2-1c-0.5-1.3-1.8-1.9-3.2-1.4c-1.5,0.5-2.1,1.8-1.6,3.1c0.1,0.2,0.3,0.6,0.5,0.9l0.6-0.3
		c-0.2-0.2-0.5-0.5-0.6-0.8c-0.3-0.9,0.1-1.9,1.2-2.3c1-0.4,2.1,0,2.4,1c0.1,0.3,0.1,0.6,0.1,1L96.5,36.2z M97.1,64l0.3-0.8
		l-4.7-1.4l-0.2,0.6l3.9,1.2v0l-4.5,0.8l-0.2,0.8l4.8,1.4l0.2-0.6l-3.8-1.2v0L97.1,64z M97.5,39.2c-0.3-1.3-1.6-1.8-3-1.5
		c-1.5,0.4-2.3,1.4-2,2.7c0.3,1.3,1.6,1.8,3,1.5C97,41.6,97.9,40.6,97.5,39.2z M95.4,41.3c-1,0.2-2,0-2.2-1c-0.3-1,0.6-1.7,1.5-1.9
		c1-0.2,2,0,2.2,1C97.2,40.4,96.4,41.1,95.4,41.3z M96,57c-1.5-0.3-2.7,0.3-2.9,1.7c-0.2,1.4,0.7,2.3,2.1,2.6
		c1.4,0.3,2.7-0.3,2.9-1.7C98.4,58.3,97.5,57.3,96,57z M97.6,59.5c-0.2,1-1.2,1.3-2.2,1.1c-1-0.2-1.8-0.8-1.6-1.8
		c0.2-1,1.2-1.3,2.2-1.1C96.9,57.9,97.7,58.5,97.6,59.5z M93.7,55l-0.1,0.6l4.9,0.5l0.1-0.6L93.7,55z M98.6,45.7l-2.1,0.3l-0.3-2.1
		l2.1-0.3l-0.1-0.6l-4.9,0.7l0.1,0.6l2.2-0.3l0.3,2.1l-2.2,0.3l0.1,0.6l4.9-0.7L98.6,45.7z M98.8,48l-5,0.2l0.1,2.5l0.6,0l-0.1-1.9
		l1.6-0.1l0.1,1.7l0.6,0l-0.1-1.7l1.4-0.1l0.1,1.9l0.6,0L98.8,48z M97.6,51.6c-1.5-0.1-1.3,1.9-2.4,1.8c-0.6,0-0.8-0.6-0.8-0.9
		c0-0.3,0.2-0.7,0.3-0.9l-0.7-0.1c-0.1,0.3-0.2,0.6-0.2,0.9c0,0.9,0.3,1.7,1.4,1.7c1.6,0.1,1.5-1.9,2.4-1.8c0.5,0,0.6,0.5,0.6,0.8
		c0,0.3-0.1,0.5-0.2,0.8l0.6,0.1c0.1-0.3,0.2-0.7,0.2-1C99,52.3,98.5,51.7,97.6,51.6z M82.1,81.9l-3.1,5.3l0,0l-0.7-6.1l-2.5-0.5
		l-1.6,7.5l1.5,0.3l1.3-6.2l0,0l0.8,6.7l1.5,0.3l3.4-5.8h0l-1.3,6.2l1.5,0.3l1.6-7.5L82.1,81.9z M71,87.7l1.6,0.2l1.1-7.6l-1.6-0.2
		L71,87.7z M65.9,79.4L62,86.7l1.7,0.2l0.9-1.7l3.2,0.3l0.5,1.8l1.8,0.2l-2.4-8L65.9,79.4z M65.2,84l1.5-3h0l0.8,3.3L65.2,84z
		 M59.6,84.7L59.6,84.7l-2.8-5.9l-2-0.1l-0.3,7.7l1.5,0.1l0.2-5.8l0,0l2.8,5.9l2,0.1l0.3-7.7l-1.5-0.1L59.6,84.7z M48.5,78.7l-3,7.7
		l1.7,0l0.7-1.8l3.2,0l0.7,1.8l1.8,0l-3.2-7.7L48.5,78.7z M48.3,83.4l1.1-3.2h0l1.2,3.2L48.3,83.4z M42.4,78.9l0.2,3.1l-3.2,0.2
		l-0.2-3.1l-1.6,0.1l0.5,7.7l1.6-0.1l-0.2-3.4l3.2-0.2l0.2,3.4l1.6-0.1L44,78.8L42.4,78.9z M31.1,79.9L29,88l1.7-0.2l0.5-1.8
		l3.2-0.4l0.9,1.7L37,87l-4.1-7.3L31.1,79.9z M31.4,84.7l0.8-3.3h0l1.5,3L31.4,84.7z M23.8,81.1l-0.7,6.1l0,0l-3.1-5.3l-2.5,0.5
		l1.6,7.5l1.5-0.3l-1.3-6.2l0,0l3.4,5.8l1.5-0.3l0.8-6.7l0,0l1.3,6.2l1.5-0.3l-1.6-7.5L23.8,81.1z M9.8,36.3l-0.6,2l-1.6-0.5L8.2,36
		l-0.6-0.2L7,37.6l-1.4-0.4l0.6-2L5.7,35l-0.8,2.7l4.7,1.5l0.8-2.7L9.8,36.3z M8.8,60.4l-0.7,0.2c0.2,0.2,0.4,0.6,0.5,1
		c0.3,1-0.3,2-1.4,2.3c-1.1,0.3-2.1-0.2-2.4-1.3c-0.1-0.3-0.1-0.7,0-1.1l-0.7,0.1c-0.1,0.4,0,0.8,0.1,1.1c0.4,1.5,1.7,2.3,3.2,1.9
		C9,64.3,9.7,63,9.3,61.5C9.2,61.2,9.1,60.7,8.8,60.4z M5.9,44c1.6,0.3,2.8-0.5,3.1-2c0.2-0.8,0.1-1.2,0.1-1.5l-2.5-0.5l-0.3,1.7
		l0.6,0.1l0.2-1L8.4,41c0,0.2,0,0.3-0.1,0.8c-0.2,1-1.1,1.7-2.3,1.4C5,43,4.3,42.1,4.6,41c0.1-0.6,0.3-1,0.6-1.3l-0.7-0.2
		c-0.2,0.4-0.4,0.7-0.5,1.4C3.6,42.4,4.4,43.6,5.9,44z M8.6,58.8l-2.2,0.4L6,56.8l2.2-0.4l-0.1-0.7l-4.9,0.8l0.1,0.7l2.1-0.3
		l0.4,2.3l-2.1,0.3l0.1,0.7l4.9-0.8L8.6,58.8z M8,48.6l-4.1-0.3l0,0l4.3-1.9l0.1-0.9l-5-0.4l-0.1,0.7l4,0.3v0L3,47.9l-0.1,1l4.9,0.4
		L8,48.6z M8,54.3l-1.3-0.5l-0.1-2.4l1.2-0.6l0-0.8L3,52.3l0,0.7L8,55L8,54.3z M3.6,52.7l2.4-1.1l0.1,2L3.6,52.7z M70.8,7.9L71,7.3
		l-2.6-1.1l-1.9,4.6l2.6,1.1l0.2-0.6l-1.9-0.8L68,9l1.7,0.7L70,9.2l-1.7-0.7l0.6-1.3L70.8,7.9z M65.3,5.1c-1.4-0.4-2.8,0.2-3.3,1.7
		c-0.5,1.5,0.2,2.8,1.7,3.2c0.7,0.2,1.2,0.2,1.5,0.2l0.8-2.5l-1.7-0.5l-0.2,0.6l1,0.3l-0.4,1.4c-0.2,0-0.3,0-0.8-0.2
		c-1-0.3-1.6-1.3-1.2-2.4c0.3-1.1,1.3-1.6,2.4-1.3c0.6,0.2,0.9,0.4,1.2,0.7l0.3-0.7C66.3,5.5,66,5.3,65.3,5.1z M59.8,7.9L59.8,7.9
		l-1.5-4.3l-0.9-0.2l-0.9,4.9l0.7,0.1l0.7-4h0l1.5,4.4l0.9,0.2L61.3,4l-0.7-0.1L59.8,7.9z M52.6,7.9l2.8,0.2l0-0.6l-2.1-0.2l0.1-1.6
		l1.9,0.1l0-0.6l-1.9-0.1l0.1-1.4l2.1,0.1l0-0.6L53,3L52.6,7.9z M49.7,7.3L49.7,3L49,3l0.1,5l2.8,0l0-0.6L49.7,7.3z M46.1,7.6
		l-0.4-4.3L45,3.3l0.5,4.9L48.3,8l-0.1-0.6L46.1,7.6z M41,4l-1.1,5.3l0.7-0.2l0.2-1.3l2.4-0.5L44,8.4l0.8-0.2l-3.1-4.4L41,4z
		 M41,7.2l0.5-2.6l1.5,2.2L41,7.2z M37,5l0.6,2l-2.3,0.7l-0.6-2L34.1,6l1.5,4.7l0.7-0.2l-0.7-2.2l2.3-0.7l0.7,2.2l0.7-0.2l-1.5-4.7
		L37,5z M33.5,11c-0.9,0.4-2,0.1-2.5-1c-0.5-1-0.1-2.1,0.9-2.6c0.3-0.1,0.7-0.2,1-0.2l-0.2-0.7c-0.4,0-0.8,0.1-1.1,0.3
		c-1.4,0.6-2,2-1.3,3.4c0.7,1.4,2,1.9,3.5,1.3c0.3-0.1,0.7-0.3,0.9-0.6l-0.3-0.6C34.2,10.6,33.8,10.9,33.5,11z M75.2,66.4l-9.9-44.2
		h-1.7L50.9,58.7L38.2,22.2h-1.7l-9.9,44.2c-0.2,1-2,3-2.4,4h7.6l6.6-32l11.6,33.4h1.7l11.6-33.4l6.6,32h7.6
		C77.2,69.4,75.4,67.4,75.2,66.4z M60.6,49.4l3.2,16.9c0.2,0.7-0.1,1.7-0.4,2.8h5.2l-5.5-26.7L60.6,49.4z M60.2,28.6l-1-5H58
		l-7.1,20.3l-7-20.3h-1.2l-1,5l9.3,26.9L60.2,28.6z M41.2,49.4l-2.4-7l-5.5,26.7h5.2C38.1,68,37.8,67,38,66.4L41.2,49.4z M97.6,51.6
		c-1.5-0.1-1.3,1.9-2.4,1.8c-0.6,0-0.8-0.6-0.8-0.9c0-0.3,0.2-0.7,0.3-0.9l-0.7-0.1c-0.1,0.3-0.2,0.6-0.2,0.9c0,0.9,0.3,1.7,1.4,1.7
		c1.6,0.1,1.5-1.9,2.4-1.8c0.5,0,0.6,0.5,0.6,0.8c0,0.3-0.1,0.5-0.2,0.8l0.6,0.1c0.1-0.3,0.2-0.7,0.2-1C99,52.3,98.5,51.7,97.6,51.6
		z M93.9,50.7l0.6,0l-0.1-1.9l1.6-0.1l0.1,1.7l0.6,0l-0.1-1.7l1.4-0.1l0.1,1.9l0.6,0L98.8,48l-5,0.2L93.9,50.7z M93.4,44.2l2.2-0.3
		l0.3,2.1l-2.2,0.3l0.1,0.6l4.9-0.7l-0.1-0.6l-2.1,0.3l-0.3-2.1l2.1-0.3l-0.1-0.6l-4.9,0.7L93.4,44.2z M93.7,55.6l4.9,0.5l0.1-0.6
		L93.7,55L93.7,55.6z M96,57c-1.5-0.3-2.7,0.3-2.9,1.7c-0.2,1.4,0.7,2.3,2.1,2.6c1.4,0.3,2.7-0.3,2.9-1.7C98.4,58.3,97.5,57.3,96,57
		z M97.6,59.5c-0.2,1-1.2,1.3-2.2,1.1c-1-0.2-1.8-0.8-1.6-1.8c0.2-1,1.2-1.3,2.2-1.1C96.9,57.9,97.7,58.5,97.6,59.5z M94.5,37.7
		c-1.5,0.4-2.3,1.4-2,2.7c0.3,1.3,1.6,1.8,3,1.5c1.4-0.4,2.3-1.4,2-2.7C97.2,37.9,95.9,37.4,94.5,37.7z M96.9,39.4
		c0.2,1-0.5,1.7-1.5,1.9c-1,0.2-2,0-2.2-1c-0.3-1,0.6-1.7,1.5-1.9C95.6,38.2,96.7,38.4,96.9,39.4z M92.4,62.3l3.9,1.2v0l-4.5,0.8
		l-0.2,0.8l4.8,1.4l0.2-0.6l-3.8-1.2v0l4.4-0.7l0.3-0.8l-4.7-1.4L92.4,62.3z M92.6,37.5c-0.2-0.2-0.5-0.5-0.6-0.8
		c-0.3-0.9,0.1-1.9,1.2-2.3c1-0.4,2.1,0,2.4,1c0.1,0.3,0.1,0.6,0.1,1l0.7-0.2c0-0.4,0-0.7-0.2-1c-0.5-1.3-1.8-1.9-3.2-1.4
		c-1.5,0.5-2.1,1.8-1.6,3.1c0.1,0.2,0.3,0.6,0.5,0.9L92.6,37.5z M94.1,82.8c-0.8-0.4-1.6-0.9-2.5-1.3c6.4-8.5,10.3-19.1,10.3-30.6
		c0-12.3-4.4-24-12.4-33.2V14c0-0.4-0.4-0.8-0.8-0.8h-3.6C75.7,4.7,63.7,0,50.9,0C38.1,0,26.1,4.7,16.7,13.2h-3.6
		c-0.5,0-0.8,0.4-0.8,0.8v3.6C4.4,26.9,0,38.6,0,50.9C0,62.4,3.8,73,10.2,81.5c-0.9,0.4-1.7,0.8-2.5,1.3c-1.2,0.7-1.5,1.8-0.8,3.1
		c0.6,1.2,2.7,8.5,3.1,11.2h0c0,0.1,0,0.3,0.1,0.4c0.3,0.8,1.3,1.5,2.4,1.2c0.4-0.1,1.2-0.1,2.1-0.2c0.2,0.7,0.7,2.9,0.7,2.9l4.8-1
		l1.6-0.3c0.2-0.1,2.3-0.8,2.2-1.9c0-0.1,0-0.2-0.1-0.2c-0.1-0.5-0.8-3-1.3-4.7c7.3,4.9,16,8,25.4,8.6c1.4,0.4,2.4,0.7,2.9,0.7
		c0.5,0,1.6-0.2,2.9-0.7c9.4-0.5,18.1-3.6,25.4-8.6c-0.6,1.7-1.2,4.3-1.3,4.7c0,0.1-0.1,0.2-0.1,0.2c-0.1,1.1,2,1.9,2.2,1.9l1.6,0.3
		l4.9,1.1l0.1-0.7c0,0,0.2-1.6,0.3-2.3c1.1,0,2,0.1,2.3,0.2c1.2,0.3,2.1-0.4,2.4-1.2c0.1-0.1,0.1-0.3,0.1-0.4
		c0.2-1.3,0.8-3.8,1.4-6.1c0.7-2.3,1.3-4.4,1.6-5C95.5,84.6,95.2,83.5,94.1,82.8z M89.5,39.8c1,3.5,1.6,7.3,1.6,11.1
		c0,3.9-0.6,7.6-1.6,11.1V39.8z M89.5,68.7v-4.3c1.5-4.2,2.3-8.7,2.3-13.5c0-4.7-0.8-9.2-2.3-13.5V18.8c7.5,9,11.7,20.2,11.7,32.1
		c0,11.4-3.8,21.9-10.2,30.3c-1.5-0.7-3.2-1.3-5-1.8C88.1,76,89.5,72.4,89.5,68.7z M52.5,72.8h-3.2c-0.2-0.5-7-20.2-7-20.2
		c-0.1-0.1-0.2-0.2-0.4-0.2c-0.2,0-0.3,0.1-0.3,0.3L39,66.6c0,0.1,0,0.1,0,0.2c0,0.4,0.1,1,0.4,2c0,0,0.3,0.8,0.4,1.3
		c-0.8,0-6.6,0-6.6,0c-0.2,0-0.3,0.1-0.3,0.3c0,0-0.1,0.6-0.2,0.9c-0.5,0-9.4,0-10.6,0c1.7-2.3,3.4-4.9,3.5-5.2c0,0,10-44.5,10.1-45
		H39c0.1,0.4,1.5,4.4,1.5,4.4c0.1,0.1,0.2,0.2,0.4,0.2c0.2,0,0.3-0.1,0.3-0.3c0,0,0.5-2.5,0.6-2.9h2.8c0.2,0.5,6,17.2,6,17.2
		c0.1,0.1,0.2,0.2,0.3,0.2c0.2,0,0.3-0.1,0.3-0.2c0,0,5.8-16.8,6-17.2H60c0.1,0.5,0.6,2.9,0.6,2.9c0,0.2,0.2,0.3,0.3,0.3
		c0.2,0,0.3-0.1,0.4-0.2c0,0,1.4-4,1.5-4.4h3.2c0.1,0.6,10.1,45,10.1,45c0.1,0.3,1.9,2.9,3.5,5.2c-1.2,0-10.1,0-10.6,0
		c-0.1-0.3-0.2-0.9-0.2-0.9c0-0.2-0.2-0.3-0.3-0.3c0,0-5.7,0-6.6,0c0.2-0.5,0.4-1.3,0.4-1.3c0.3-1,0.4-1.6,0.4-2c0-0.1,0-0.2,0-0.3
		l-2.6-13.9c0-0.2-0.2-0.3-0.3-0.3c-0.2,0-0.3,0.1-0.4,0.2C59.5,52.6,52.7,72.4,52.5,72.8z M54.1,70.4V75c-1.1,0-2.1,0-3.2,0
		c-1.1,0-2.1,0-3.2,0v-4.6c0.6,1.7,1,2.9,1,2.9c0,0.1,0.2,0.2,0.3,0.2h3.7c0.2,0,0.3-0.1,0.3-0.2C53.1,73.3,53.5,72.2,54.1,70.4z
		 M47.7,14.9h6.4v14.6c-1.4,4-2.9,8.3-3.2,9.2c-0.3-0.9-1.8-5.2-3.2-9.2V14.9z M37.1,13.2c4.3-1.6,8.9-2.4,13.8-2.4
		c4.8,0,9.5,0.9,13.8,2.4H37.1z M71.8,43.6h16V50H73.3L71.8,43.6z M54.8,68.4c1.8-5.2,4.5-12.8,5-14.3c0.4,2.1,2.4,12.6,2.4,12.6
		c0,0,0,0.1,0,0.1c0,0.2-0.1,0.7-0.4,1.8l-0.5,1.8c0,0,0,0.1,0,0.1c0,0.1,0,0.1,0.1,0.2c0.1,0.1,0.2,0.1,0.3,0.1c0,0,6.2,0,6.8,0
		c0.1,0.3,0.2,0.9,0.2,0.9c0,0.2,0.2,0.3,0.3,0.3h11.5c0.1,0,0.3-0.1,0.3-0.2c0.1-0.1,0.1-0.3,0-0.4c-1.4-2-3.7-5.2-3.8-5.6
		l-3.4-15.3h14.4c0,9.9,0,18,0,18c0,3.5-1.4,7-3.6,10.2c-7.9-2.2-18.2-3.6-29.4-3.8V68.4z M87.8,14.9v28H71.7l-5-22.2
		c0-0.2-0.2-0.3-0.3-0.3h-3.8c-0.2,0-0.3,0.1-0.3,0.2c0,0-0.7,2.1-1.2,3.4c-0.2-0.9-0.4-2-0.4-2c0-0.2-0.2-0.3-0.3-0.3H57
		c-0.2,0-0.3,0.1-0.3,0.2c0,0-0.8,2.3-1.8,5.3V14.9H87.8z M50.9,0.7c12.3,0,24,4.4,33.1,12.5H66.6c-4.8-2-10.2-3.2-15.7-3.2
		c-5.6,0-10.9,1.1-15.7,3.2H17.8C26.9,5.1,38.6,0.7,50.9,0.7z M14,14.9h33v12.5c-1-2.9-1.8-5.3-1.8-5.3c-0.1-0.1-0.2-0.2-0.3-0.2
		h-3.3c-0.2,0-0.3,0.1-0.3,0.3c0,0-0.2,1-0.4,2c-0.5-1.3-1.2-3.4-1.2-3.4c-0.1-0.1-0.2-0.2-0.3-0.2h-3.8c-0.2,0-0.3,0.1-0.3,0.3
		l-5,22.2H14V14.9z M14,43.6h16L28.6,50H14V43.6z M14,50.7h14.4L25,66c-0.1,0.3-2.4,3.6-3.8,5.5c-0.1,0.1-0.1,0.3,0,0.4
		c0.1,0.1,0.2,0.2,0.3,0.2H33c0.2,0,0.3-0.1,0.3-0.3c0,0,0.1-0.6,0.2-0.9c0.5,0,6.8,0,6.8,0c0.1,0,0.2-0.1,0.3-0.1
		c0-0.1,0.1-0.1,0.1-0.2c0,0,0-0.1,0-0.1l-0.5-1.8c-0.4-1.2-0.4-1.6-0.4-1.8v-0.1c0,0,2-10.5,2.4-12.7c0.5,1.4,3.2,9.1,5,14.3V75
		c-11.2,0.3-21.6,1.6-29.4,3.8c-2.2-3.2-3.6-6.7-3.6-10.2C14,68.7,14,60.6,14,50.7z M0.7,50.9c0-11.9,4.1-23.1,11.7-32.1v18.7
		c-1.5,4.2-2.3,8.7-2.3,13.4s0.8,9.2,2.3,13.5v4.3c0,3.7,1.4,7.3,3.6,10.7c-1.8,0.6-3.5,1.2-5,1.8C4.5,72.8,0.7,62.3,0.7,50.9z
		 M12.4,39.8V62c-1-3.5-1.6-7.3-1.6-11.1S11.3,43.3,12.4,39.8z M21.4,98.9c0,0-4.2,0.9-5.1,1.1c-0.1-0.5-0.2-0.9-0.4-1.5
		c2.3-0.1,5.1,0,6.3,0C22,98.6,21.7,98.8,21.4,98.9z M12.3,97.5c-0.5,0.1-0.9-0.2-1-0.4c0-0.1,0-0.1,0-0.1h0c0,0,0,0,0,0
		c0-0.1,0.1-0.2,0.2-0.2c2.6-1.4,5.9-2.6,9.8-3.7c0.4,1.1,1,3.1,1.3,4.2C20.3,97.1,13.7,97.2,12.3,97.5z M22.9,92.6
		c1.7-0.4,3.6-0.8,5.5-1.1c6.1,4.3,12.6,7.6,17.1,9.4C37.2,99.9,29.5,97,22.9,92.6z M54.1,89.7V100c-1.5,0.5-2.6,0.8-3.2,0.8
		c-0.6,0-1.7-0.3-3.2-0.8V89.7c-0.2,0-0.5,0-0.7,0v10c-4-1.5-10.3-4.6-16.3-8.6c5-0.8,10.6-1.2,16.3-1.4v-0.2h0.7v0.2
		c1.1,0,2.1,0,3.2,0C52,89.6,53,89.6,54.1,89.7v-0.2h0.7v0.2c5.7,0.1,11.3,0.6,16.3,1.4c-6,4.1-12.3,7.1-16.3,8.6v-10
		C54.6,89.7,54.3,89.7,54.1,89.7z M56.3,100.8c4.5-1.8,11.1-5.1,17.1-9.4c1.9,0.3,3.7,0.7,5.5,1.1C72.3,97,64.6,99.9,56.3,100.8z
		 M85.5,100c-1-0.2-3.6-0.8-3.6-0.8l-1.4-0.3c-0.4-0.1-0.6-0.3-0.9-0.4c1.3-0.1,3.9-0.1,6.1,0C85.6,99,85.6,99.4,85.5,100z
		 M90.6,96.9c0,0,0,0.1,0,0.1c-0.1,0.2-0.4,0.6-1,0.5c-1.4-0.3-8.1-0.3-10.2-0.2c0.3-1.2,0.9-3.2,1.3-4.2c3.9,1,7.2,2.3,9.8,3.7
		C90.5,96.7,90.6,96.8,90.6,96.9C90.6,96.9,90.6,96.9,90.6,96.9z M93.8,85.3c-0.6,1.1-2.3,6.8-2.9,10.1c-8.2-4.4-23.4-7.1-39.9-7.1
		S19.2,91.1,11,95.5c-0.7-3.4-2.4-9-2.9-10.1c-0.3-0.7-0.3-1.1,0.3-1.5c7.8-4.6,24.5-7.6,42.5-7.6c18,0,34.7,3,42.5,7.6
		C94,84.2,94.1,84.6,93.8,85.3z M97.6,51.6c-1.5-0.1-1.3,1.9-2.4,1.8c-0.6,0-0.8-0.6-0.8-0.9c0-0.3,0.2-0.7,0.3-0.9l-0.7-0.1
		c-0.1,0.3-0.2,0.6-0.2,0.9c0,0.9,0.3,1.7,1.4,1.7c1.6,0.1,1.5-1.9,2.4-1.8c0.5,0,0.6,0.5,0.6,0.8c0,0.3-0.1,0.5-0.2,0.8l0.6,0.1
		c0.1-0.3,0.2-0.7,0.2-1C99,52.3,98.5,51.7,97.6,51.6z M93.9,50.7l0.6,0l-0.1-1.9l1.6-0.1l0.1,1.7l0.6,0l-0.1-1.7l1.4-0.1l0.1,1.9
		l0.6,0L98.8,48l-5,0.2L93.9,50.7z M93.4,44.2l2.2-0.3l0.3,2.1l-2.2,0.3l0.1,0.6l4.9-0.7l-0.1-0.6l-2.1,0.3l-0.3-2.1l2.1-0.3
		l-0.1-0.6l-4.9,0.7L93.4,44.2z M93.7,55.6l4.9,0.5l0.1-0.6L93.7,55L93.7,55.6z M96,57c-1.5-0.3-2.7,0.3-2.9,1.7
		c-0.2,1.4,0.7,2.3,2.1,2.6c1.4,0.3,2.7-0.3,2.9-1.7C98.4,58.3,97.5,57.3,96,57z M97.6,59.5c-0.2,1-1.2,1.3-2.2,1.1
		c-1-0.2-1.8-0.8-1.6-1.8c0.2-1,1.2-1.3,2.2-1.1C96.9,57.9,97.7,58.5,97.6,59.5z M94.5,37.7c-1.5,0.4-2.3,1.4-2,2.7
		c0.3,1.3,1.6,1.8,3,1.5c1.4-0.4,2.3-1.4,2-2.7C97.2,37.9,95.9,37.4,94.5,37.7z M96.9,39.4c0.2,1-0.5,1.7-1.5,1.9c-1,0.2-2,0-2.2-1
		c-0.3-1,0.6-1.7,1.5-1.9C95.6,38.2,96.7,38.4,96.9,39.4z M96.5,65.9l-3.8-1.2v0l4.4-0.7l0.3-0.8l-4.7-1.4l-0.2,0.6l3.9,1.2v0
		l-4.5,0.8l-0.2,0.8l4.8,1.4L96.5,65.9z M92.6,37.5c-0.2-0.2-0.5-0.5-0.6-0.8c-0.3-0.9,0.1-1.9,1.2-2.3c1-0.4,2.1,0,2.4,1
		c0.1,0.3,0.1,0.6,0.1,1l0.7-0.2c0-0.4,0-0.7-0.2-1c-0.5-1.3-1.8-1.9-3.2-1.4c-1.5,0.5-2.1,1.8-1.6,3.1c0.1,0.2,0.3,0.6,0.5,0.9
		L92.6,37.5z M79.1,87.2L79.1,87.2l-0.7-6.1l-2.5-0.5l-1.6,7.5l1.5,0.3l1.3-6.2l0,0l0.8,6.7l1.5,0.3l3.4-5.8h0l-1.3,6.2l1.5,0.3
		l1.6-7.5l-2.5-0.5L79.1,87.2z M70,70.4h7.6c-0.4-1-2.2-2.9-2.4-4l-9.9-44.2h-1.7L50.9,58.7L38.2,22.2h-1.7l-9.9,44.2
		c-0.2,1-2,3-2.4,4h7.6l6.6-32l11.6,33.4h1.7l11.6-33.4L70,70.4z M71,87.7l1.6,0.2l1.1-7.6l-1.6-0.2L71,87.7z M69.1,11.9l0.2-0.6
		l-1.9-0.8L68,9l1.7,0.7L70,9.2l-1.7-0.7l0.6-1.3l1.9,0.8L71,7.3l-2.6-1.1l-1.9,4.6L69.1,11.9z M65.9,79.4L62,86.7l1.7,0.2l0.9-1.7
		l3.2,0.3l0.5,1.8l1.8,0.2l-2.4-8L65.9,79.4z M65.2,84l1.5-3h0l0.8,3.3L65.2,84z M60.6,49.4l3.2,16.9c0.2,0.7-0.1,1.7-0.4,2.8h5.2
		l-5.5-26.7L60.6,49.4z M63.8,10c0.7,0.2,1.2,0.2,1.5,0.2l0.8-2.5l-1.7-0.5l-0.2,0.6l1,0.3l-0.4,1.4c-0.2,0-0.3,0-0.8-0.2
		c-1-0.3-1.6-1.3-1.2-2.4c0.3-1.1,1.3-1.6,2.4-1.3c0.6,0.2,0.9,0.4,1.2,0.7l0.3-0.7c-0.4-0.3-0.6-0.4-1.3-0.7
		c-1.4-0.4-2.8,0.2-3.3,1.7C61.6,8.3,62.3,9.5,63.8,10z M59.6,84.7L59.6,84.7l-2.8-5.9l-2-0.1l-0.3,7.7l1.5,0.1l0.2-5.8l0,0l2.8,5.9
		l2,0.1l0.3-7.7l-1.5-0.1L59.6,84.7z M58,4.4L58,4.4l1.5,4.4l0.9,0.2L61.3,4l-0.7-0.1l-0.7,3.9l0,0l-1.5-4.3l-0.9-0.2l-0.9,4.9
		l0.7,0.1L58,4.4z M60.2,28.6l-1-5H58l-7.1,20.3l-7-20.3h-1.2l-1,5l9.3,26.9L60.2,28.6z M55.4,7.5l-2.1-0.2l0.1-1.6l1.9,0.1l0-0.6
		l-1.9-0.1l0.1-1.4l2.1,0.1l0-0.6L53,3l-0.4,5l2.8,0.2L55.4,7.5z M48.5,78.7l-3,7.7l1.7,0l0.7-1.8l3.2,0l0.7,1.8l1.8,0l-3.2-7.7
		L48.5,78.7z M48.3,83.4l1.1-3.2h0l1.2,3.2L48.3,83.4z M51.8,7.9l0-0.6l-2.1,0L49.7,3L49,3l0.1,5L51.8,7.9z M48.3,8l-0.1-0.6
		l-2.1,0.2l-0.4-4.3L45,3.3l0.5,4.9L48.3,8z M40.9,7.8l2.4-0.5L44,8.4l0.8-0.2l-3.1-4.4L41,4l-1.1,5.3l0.7-0.2L40.9,7.8z M41.5,4.6
		l1.5,2.2L41,7.2L41.5,4.6z M42.4,78.9l0.2,3.1l-3.2,0.2l-0.2-3.1l-1.6,0.1l0.5,7.7l1.6-0.1l-0.2-3.4l3.2-0.2l0.2,3.4l1.6-0.1
		L44,78.8L42.4,78.9z M33.2,69.1h5.2C38.1,68,37.8,67,38,66.4l3.2-16.9l-2.4-7L33.2,69.1z M36.3,10.5l-0.7-2.2l2.3-0.7l0.7,2.2
		l0.7-0.2l-1.5-4.7L37,5l0.6,2l-2.3,0.7l-0.6-2L34.1,6l1.5,4.7L36.3,10.5z M31.1,79.9L29,88l1.7-0.2l0.5-1.8l3.2-0.4l0.9,1.7L37,87
		l-4.1-7.3L31.1,79.9z M31.4,84.7l0.8-3.3h0l1.5,3L31.4,84.7z M33.5,11c-0.9,0.4-2,0.1-2.5-1c-0.5-1-0.1-2.1,0.9-2.6
		c0.3-0.1,0.7-0.2,1-0.2l-0.2-0.7c-0.4,0-0.8,0.1-1.1,0.3c-1.4,0.6-2,2-1.3,3.4c0.7,1.4,2,1.9,3.5,1.3c0.3-0.1,0.7-0.3,0.9-0.6
		l-0.3-0.6C34.2,10.6,33.8,10.9,33.5,11z M23.8,81.1l-0.7,6.1l0,0l-3.1-5.3l-2.5,0.5l1.6,7.5l1.5-0.3l-1.3-6.2l0,0l3.4,5.8l1.5-0.3
		l0.8-6.7l0,0l1.3,6.2l1.5-0.3l-1.6-7.5L23.8,81.1z M9.8,36.3l-0.6,2l-1.6-0.5L8.2,36l-0.6-0.2L7,37.6l-1.4-0.4l0.6-2L5.7,35
		l-0.8,2.7l4.7,1.5l0.8-2.7L9.8,36.3z M8.8,60.4l-0.7,0.2c0.2,0.2,0.4,0.6,0.5,1c0.3,1-0.3,2-1.4,2.3c-1.1,0.3-2.1-0.2-2.4-1.3
		c-0.1-0.3-0.1-0.7,0-1.1l-0.7,0.1c-0.1,0.4,0,0.8,0.1,1.1c0.4,1.5,1.7,2.3,3.2,1.9C9,64.3,9.7,63,9.3,61.5
		C9.2,61.2,9.1,60.7,8.8,60.4z M5.9,44c1.6,0.3,2.8-0.5,3.1-2c0.2-0.8,0.1-1.2,0.1-1.5l-2.5-0.5l-0.3,1.7l0.6,0.1l0.2-1L8.4,41
		c0,0.2,0,0.3-0.1,0.8c-0.2,1-1.1,1.7-2.3,1.4C5,43,4.3,42.1,4.6,41c0.1-0.6,0.3-1,0.6-1.3l-0.7-0.2c-0.2,0.4-0.4,0.7-0.5,1.4
		C3.6,42.4,4.4,43.6,5.9,44z M8.6,58.8l-2.2,0.4L6,56.8l2.2-0.4l-0.1-0.7l-4.9,0.8l0.1,0.7l2.1-0.3l0.4,2.3l-2.1,0.3l0.1,0.7
		l4.9-0.8L8.6,58.8z M8,48.6l-4.1-0.3l0,0l4.3-1.9l0.1-0.9l-5-0.4l-0.1,0.7l4,0.3v0L3,47.9l-0.1,1l4.9,0.4L8,48.6z M8,54.3l-1.3-0.5
		l-0.1-2.4l1.2-0.6l0-0.8L3,52.3l0,0.7L8,55L8,54.3z M3.6,52.7l2.4-1.1l0.1,2L3.6,52.7z M96.5,36.2c0-0.4,0-0.7-0.2-1
		c-0.5-1.3-1.8-1.9-3.2-1.4c-1.5,0.5-2.1,1.8-1.6,3.1c0.1,0.2,0.3,0.6,0.5,0.9l0.6-0.3c-0.2-0.2-0.5-0.5-0.6-0.8
		c-0.3-0.9,0.1-1.9,1.2-2.3c1-0.4,2.1,0,2.4,1c0.1,0.3,0.1,0.6,0.1,1L96.5,36.2z M97.1,64l0.3-0.8l-4.7-1.4l-0.2,0.6l3.9,1.2v0
		l-4.5,0.8l-0.2,0.8l4.8,1.4l0.2-0.6l-3.8-1.2v0L97.1,64z M97.5,39.2c-0.3-1.3-1.6-1.8-3-1.5c-1.5,0.4-2.3,1.4-2,2.7
		c0.3,1.3,1.6,1.8,3,1.5C97,41.6,97.9,40.6,97.5,39.2z M95.4,41.3c-1,0.2-2,0-2.2-1c-0.3-1,0.6-1.7,1.5-1.9c1-0.2,2,0,2.2,1
		C97.2,40.4,96.4,41.1,95.4,41.3z M96,57c-1.5-0.3-2.7,0.3-2.9,1.7c-0.2,1.4,0.7,2.3,2.1,2.6c1.4,0.3,2.7-0.3,2.9-1.7
		C98.4,58.3,97.5,57.3,96,57z M97.6,59.5c-0.2,1-1.2,1.3-2.2,1.1c-1-0.2-1.8-0.8-1.6-1.8c0.2-1,1.2-1.3,2.2-1.1
		C96.9,57.9,97.7,58.5,97.6,59.5z M93.7,55l-0.1,0.6l4.9,0.5l0.1-0.6L93.7,55z M98.6,45.7l-2.1,0.3l-0.3-2.1l2.1-0.3l-0.1-0.6
		l-4.9,0.7l0.1,0.6l2.2-0.3l0.3,2.1l-2.2,0.3l0.1,0.6l4.9-0.7L98.6,45.7z M98.8,48l-5,0.2l0.1,2.5l0.6,0l-0.1-1.9l1.6-0.1l0.1,1.7
		l0.6,0l-0.1-1.7l1.4-0.1l0.1,1.9l0.6,0L98.8,48z M97.6,51.6c-1.5-0.1-1.3,1.9-2.4,1.8c-0.6,0-0.8-0.6-0.8-0.9
		c0-0.3,0.2-0.7,0.3-0.9l-0.7-0.1c-0.1,0.3-0.2,0.6-0.2,0.9c0,0.9,0.3,1.7,1.4,1.7c1.6,0.1,1.5-1.9,2.4-1.8c0.5,0,0.6,0.5,0.6,0.8
		c0,0.3-0.1,0.5-0.2,0.8l0.6,0.1c0.1-0.3,0.2-0.7,0.2-1C99,52.3,98.5,51.7,97.6,51.6z M38,66.4l3.2-16.9l-2.4-7l-5.5,26.7h5.2
		C38.1,68,37.8,67,38,66.4z M59.2,23.6H58l-7.1,20.3l-7-20.3h-1.2l-1,5l9.3,26.9l9.3-26.9L59.2,23.6z M68.6,69.1l-5.5-26.7l-2.4,7
		l3.2,16.9c0.2,0.7-0.1,1.7-0.4,2.8H68.6z M75.2,66.4l-9.9-44.2h-1.7L50.9,58.7L38.2,22.2h-1.7l-9.9,44.2c-0.2,1-2,3-2.4,4h7.6
		l6.6-32l11.6,33.4h1.7l11.6-33.4l6.6,32h7.6C77.2,69.4,75.4,67.4,75.2,66.4z M34.4,10.3c-0.2,0.2-0.6,0.5-0.9,0.7
		c-0.9,0.4-2,0.1-2.5-1c-0.5-1-0.1-2.1,0.9-2.6c0.3-0.1,0.7-0.2,1-0.2l-0.2-0.7c-0.4,0-0.8,0.1-1.1,0.3c-1.4,0.6-2,2-1.3,3.4
		c0.7,1.4,2,1.9,3.5,1.3c0.3-0.1,0.7-0.3,0.9-0.6L34.4,10.3z M37.7,4.8L37,5l0.6,2l-2.3,0.7l-0.6-2L34.1,6l1.5,4.7l0.7-0.2l-0.7-2.2
		l2.3-0.7l0.7,2.2l0.7-0.2L37.7,4.8z M41.7,3.8L41,4l-1.1,5.3l0.7-0.2l0.2-1.3l2.4-0.5L44,8.4l0.8-0.2L41.7,3.8z M41,7.2l0.5-2.6
		l1.5,2.2L41,7.2z M48.2,7.3l-2.1,0.2l-0.4-4.3L45,3.3l0.5,4.9L48.3,8L48.2,7.3z M51.8,7.3l-2.1,0L49.7,3L49,3l0.1,5l2.8,0L51.8,7.3
		z M55.7,3.8l0-0.6L53,3l-0.4,5l2.8,0.2l0-0.6l-2.1-0.2l0.1-1.6l1.9,0.1l0-0.6l-1.9-0.1l0.1-1.4L55.7,3.8z M60.5,3.9l-0.7,3.9l0,0
		l-1.5-4.3l-0.9-0.2l-0.9,4.9l0.7,0.1l0.7-4h0l1.5,4.4l0.9,0.2L61.3,4L60.5,3.9z M65.3,5.1c-1.4-0.4-2.8,0.2-3.3,1.7
		c-0.5,1.5,0.2,2.8,1.7,3.2c0.7,0.2,1.2,0.2,1.5,0.2l0.8-2.5l-1.7-0.5l-0.2,0.6l1,0.3l-0.4,1.4c-0.2,0-0.3,0-0.8-0.2
		c-1-0.3-1.6-1.3-1.2-2.4c0.3-1.1,1.3-1.6,2.4-1.3c0.6,0.2,0.9,0.4,1.2,0.7l0.3-0.7C66.3,5.5,66,5.3,65.3,5.1z M70.8,7.9L71,7.3
		l-2.6-1.1l-1.9,4.6l2.6,1.1l0.2-0.6l-1.9-0.8L68,9l1.7,0.7L70,9.2l-1.7-0.7l0.6-1.3L70.8,7.9z M8,54.3l-1.3-0.5l-0.1-2.4l1.2-0.6
		l0-0.8L3,52.3l0,0.7L8,55L8,54.3z M3.6,52.7l2.4-1.1l0.1,2L3.6,52.7z M8.1,46.4l0.1-0.9l-5-0.4l-0.1,0.7l4,0.3v0L3,47.9l-0.1,1
		l4.9,0.4L8,48.6l-4.1-0.3l0,0L8.1,46.4z M8.6,58.8l-2.2,0.4L6,56.8l2.2-0.4l-0.1-0.7l-4.9,0.8l0.1,0.7l2.1-0.3l0.4,2.3l-2.1,0.3
		l0.1,0.7l4.9-0.8L8.6,58.8z M9,40.4l-2.5-0.5l-0.3,1.7l0.6,0.1l0.2-1L8.4,41c0,0.2,0,0.3-0.1,0.8c-0.2,1-1.1,1.7-2.3,1.4
		C5,43,4.3,42.1,4.6,41c0.1-0.6,0.3-1,0.6-1.3l-0.7-0.2c-0.2,0.4-0.4,0.7-0.5,1.4c-0.3,1.5,0.5,2.8,2,3.1c1.6,0.3,2.8-0.5,3.1-2
		C9.1,41.2,9.1,40.7,9,40.4z M9.3,61.5c-0.1-0.3-0.2-0.7-0.5-1l-0.7,0.2c0.2,0.2,0.4,0.6,0.5,1c0.3,1-0.3,2-1.4,2.3
		c-1.1,0.3-2.1-0.2-2.4-1.3c-0.1-0.3-0.1-0.7,0-1.1l-0.7,0.1c-0.1,0.4,0,0.8,0.1,1.1c0.4,1.5,1.7,2.3,3.2,1.9
		C9,64.3,9.7,63,9.3,61.5z M9.8,36.3l-0.6,2l-1.6-0.5L8.2,36l-0.6-0.2L7,37.6l-1.4-0.4l0.6-2L5.7,35l-0.8,2.7l4.7,1.5l0.8-2.7
		L9.8,36.3z M26.4,80.6l-2.5,0.5l-0.7,6.1l0,0l-3.1-5.3l-2.5,0.5l1.6,7.5l1.5-0.3l-1.3-6.2l0,0l3.4,5.8l1.5-0.3l0.8-6.7l0,0l1.3,6.2
		l1.5-0.3L26.4,80.6z M32.9,79.7l-1.8,0.2L29,88l1.7-0.2l0.5-1.8l3.2-0.4l0.9,1.7L37,87L32.9,79.7z M31.4,84.7l0.8-3.3h0l1.5,3
		L31.4,84.7z M44,78.8l-1.6,0.1l0.2,3.1l-3.2,0.2l-0.2-3.1l-1.6,0.1l0.5,7.7l1.6-0.1l-0.2-3.4l3.2-0.2l0.2,3.4l1.6-0.1L44,78.8z
		 M50.3,78.7l-1.8,0l-3,7.7l1.7,0l0.7-1.8l3.2,0l0.7,1.8l1.8,0L50.3,78.7z M48.3,83.4l1.1-3.2h0l1.2,3.2L48.3,83.4z M59.9,78.9
		l-0.2,5.8h0l-2.8-5.9l-2-0.1l-0.3,7.7l1.5,0.1l0.2-5.8l0,0l2.8,5.9l2,0.1l0.3-7.7L59.9,78.9z M67.7,79.5l-1.8-0.2L62,86.7l1.7,0.2
		l0.9-1.7l3.2,0.3l0.5,1.8l1.8,0.2L67.7,79.5z M65.2,84l1.5-3h0l0.8,3.3L65.2,84z M72.1,80.1L71,87.7l1.6,0.2l1.1-7.6L72.1,80.1z
		 M82.1,81.9l-3.1,5.3l0,0l-0.7-6.1l-2.5-0.5l-1.6,7.5l1.5,0.3l1.3-6.2l0,0l0.8,6.7l1.5,0.3l3.4-5.8h0l-1.3,6.2l1.5,0.3l1.6-7.5
		L82.1,81.9z M97.6,51.6c-1.5-0.1-1.3,1.9-2.4,1.8c-0.6,0-0.8-0.6-0.8-0.9c0-0.3,0.2-0.7,0.3-0.9l-0.7-0.1c-0.1,0.3-0.2,0.6-0.2,0.9
		c0,0.9,0.3,1.7,1.4,1.7c1.6,0.1,1.5-1.9,2.4-1.8c0.5,0,0.6,0.5,0.6,0.8c0,0.3-0.1,0.5-0.2,0.8l0.6,0.1c0.1-0.3,0.2-0.7,0.2-1
		C99,52.3,98.5,51.7,97.6,51.6z M97.5,39.2c-0.3-1.3-1.6-1.8-3-1.5c-1.5,0.4-2.3,1.4-2,2.7c0.3,1.3,1.6,1.8,3,1.5
		C97,41.6,97.9,40.6,97.5,39.2z M95.4,41.3c-1,0.2-2,0-2.2-1c-0.3-1,0.6-1.7,1.5-1.9c1-0.2,2,0,2.2,1C97.2,40.4,96.4,41.1,95.4,41.3
		z M97.1,64l0.3-0.8l-4.7-1.4l-0.2,0.6l3.9,1.2v0l-4.5,0.8l-0.2,0.8l4.8,1.4l0.2-0.6l-3.8-1.2v0L97.1,64z M96.5,36.2
		c0-0.4,0-0.7-0.2-1c-0.5-1.3-1.8-1.9-3.2-1.4c-1.5,0.5-2.1,1.8-1.6,3.1c0.1,0.2,0.3,0.6,0.5,0.9l0.6-0.3c-0.2-0.2-0.5-0.5-0.6-0.8
		c-0.3-0.9,0.1-1.9,1.2-2.3c1-0.4,2.1,0,2.4,1c0.1,0.3,0.1,0.6,0.1,1L96.5,36.2z M68.6,69.1l-5.5-26.7l-2.4,7l3.2,16.9
		c0.2,0.7-0.1,1.7-0.4,2.8H68.6z M98.6,45.7l-2.1,0.3l-0.3-2.1l2.1-0.3l-0.1-0.6l-4.9,0.7l0.1,0.6l2.2-0.3l0.3,2.1l-2.2,0.3l0.1,0.6
		l4.9-0.7L98.6,45.7z M8.6,58.8l-2.2,0.4L6,56.8l2.2-0.4l-0.1-0.7l-4.9,0.8l0.1,0.7l2.1-0.3l0.4,2.3l-2.1,0.3l0.1,0.7l4.9-0.8
		L8.6,58.8z M9.3,61.5c-0.1-0.3-0.2-0.7-0.5-1l-0.7,0.2c0.2,0.2,0.4,0.6,0.5,1c0.3,1-0.3,2-1.4,2.3c-1.1,0.3-2.1-0.2-2.4-1.3
		c-0.1-0.3-0.1-0.7,0-1.1l-0.7,0.1c-0.1,0.4,0,0.8,0.1,1.1c0.4,1.5,1.7,2.3,3.2,1.9C9,64.3,9.7,63,9.3,61.5z M8,54.3l-1.3-0.5
		l-0.1-2.4l1.2-0.6l0-0.8L3,52.3l0,0.7L8,55L8,54.3z M3.6,52.7l2.4-1.1l0.1,2L3.6,52.7z M8.1,46.4l0.1-0.9l-5-0.4l-0.1,0.7l4,0.3v0
		L3,47.9l-0.1,1l4.9,0.4L8,48.6l-4.1-0.3l0,0L8.1,46.4z M9.8,36.3l-0.6,2l-1.6-0.5L8.2,36l-0.6-0.2L7,37.6l-1.4-0.4l0.6-2L5.7,35
		l-0.8,2.7l4.7,1.5l0.8-2.7L9.8,36.3z M9,40.4l-2.5-0.5l-0.3,1.7l0.6,0.1l0.2-1L8.4,41c0,0.2,0,0.3-0.1,0.8c-0.2,1-1.1,1.7-2.3,1.4
		C5,43,4.3,42.1,4.6,41c0.1-0.6,0.3-1,0.6-1.3l-0.7-0.2c-0.2,0.4-0.4,0.7-0.5,1.4c-0.3,1.5,0.5,2.8,2,3.1c1.6,0.3,2.8-0.5,3.1-2
		C9.1,41.2,9.1,40.7,9,40.4z M65.3,5.1c-1.4-0.4-2.8,0.2-3.3,1.7c-0.5,1.5,0.2,2.8,1.7,3.2c0.7,0.2,1.2,0.2,1.5,0.2l0.8-2.5
		l-1.7-0.5l-0.2,0.6l1,0.3l-0.4,1.4c-0.2,0-0.3,0-0.8-0.2c-1-0.3-1.6-1.3-1.2-2.4c0.3-1.1,1.3-1.6,2.4-1.3c0.6,0.2,0.9,0.4,1.2,0.7
		l0.3-0.7C66.3,5.5,66,5.3,65.3,5.1z M55.7,3.8l0-0.6L53,3l-0.4,5l2.8,0.2l0-0.6l-2.1-0.2l0.1-1.6l1.9,0.1l0-0.6l-1.9-0.1l0.1-1.4
		L55.7,3.8z M60.5,3.9l-0.7,3.9l0,0l-1.5-4.3l-0.9-0.2l-0.9,4.9l0.7,0.1l0.7-4h0l1.5,4.4l0.9,0.2L61.3,4L60.5,3.9z M51.8,7.3l-2.1,0
		L49.7,3L49,3l0.1,5l2.8,0L51.8,7.3z M70.8,7.9L71,7.3l-2.6-1.1l-1.9,4.6l2.6,1.1l0.2-0.6l-1.9-0.8L68,9l1.7,0.7L70,9.2l-1.7-0.7
		l0.6-1.3L70.8,7.9z M37.7,4.8L37,5l0.6,2l-2.3,0.7l-0.6-2L34.1,6l1.5,4.7l0.7-0.2l-0.7-2.2l2.3-0.7l0.7,2.2l0.7-0.2L37.7,4.8z
		 M34.4,10.3c-0.2,0.2-0.6,0.5-0.9,0.7c-0.9,0.4-2,0.1-2.5-1c-0.5-1-0.1-2.1,0.9-2.6c0.3-0.1,0.7-0.2,1-0.2l-0.2-0.7
		c-0.4,0-0.8,0.1-1.1,0.3c-1.4,0.6-2,2-1.3,3.4c0.7,1.4,2,1.9,3.5,1.3c0.3-0.1,0.7-0.3,0.9-0.6L34.4,10.3z M41.7,3.8L41,4l-1.1,5.3
		l0.7-0.2l0.2-1.3l2.4-0.5L44,8.4l0.8-0.2L41.7,3.8z M41,7.2l0.5-2.6l1.5,2.2L41,7.2z M48.2,7.3l-2.1,0.2l-0.4-4.3L45,3.3l0.5,4.9
		L48.3,8L48.2,7.3z"/>
	<g>
		<g>
			<g>
				<path class="st0" d="M139.6,18.2l-4.5,16.7H135l-4.2-16.7h-9.2v26h5.6V23.6h0.1l5.6,20.5h4l5.8-20.5h0.1v20.5h5.6v-26H139.6z"/>
				<path class="st0" d="M167.5,18.2h-6.7l-8.6,26h5.9l1.8-5.8h8.1l1.6,5.8h6.3L167.5,18.2z M161,33.9l3.1-10.8h0.1l2.7,10.8H161z"
					/>
				<path class="st0" d="M192,18.2v10.3h-6.3V18.2h-6.1v26h6.1V33.3h6.3v10.8h6.1v-26H192z"/>
				<path class="st0" d="M217.3,18.2h-6.7l-8.6,26h5.9l1.8-5.8h8.1l1.6,5.8h6.2L217.3,18.2z M210.7,33.9l3.1-10.8h0.1l2.7,10.8
					H210.7z"/>
				<path class="st0" d="M244,18.2v18h-0.1l-7.5-18h-7.1v26h5.4V25.3h0.1l7.5,18.8h7.2v-26H244z"/>
				<path class="st0" d="M268.4,18.2h-6.7l-8.6,26h5.9l1.8-5.8h8.1l1.6,5.8h6.3L268.4,18.2z M261.8,33.9l3.1-10.8h0.1l2.7,10.8
					H261.8z"/>
				<path class="st0" d="M280.5,18.2v26h6.1v-26H280.5z"/>
				<path class="st0" d="M310.6,18.2l-4.5,16.7H306l-4.2-16.7h-9.2v26h5.6V23.6h0.1l5.6,20.5h4l5.8-20.5h0.1v20.5h5.6v-26H310.6z"/>
			</g>
			<g>
				<path class="st0" d="M146.4,80.1c-0.2,0.1-0.5,0.2-0.9,0.4c-0.4,0.2-0.9,0.4-1.5,0.6c-0.6,0.2-1.3,0.4-2,0.5
					c-0.8,0.2-1.7,0.2-2.7,0.2c-1.3,0-2.5-0.3-3.6-0.8c-1.1-0.5-2.1-1.3-2.9-2.3c-0.8-1-1.4-2.2-1.9-3.5c-0.5-1.4-0.7-2.9-0.7-4.6
					c0-1.7,0.2-3.3,0.6-4.7c0.4-1.4,1-2.6,1.8-3.6c0.8-1,1.7-1.7,2.8-2.3c1.1-0.5,2.3-0.8,3.7-0.8c0.9,0,1.7,0.1,2.5,0.2
					c0.7,0.2,1.4,0.3,1.9,0.5c0.6,0.2,1.1,0.4,1.5,0.6c0.4,0.2,0.8,0.4,1.1,0.6l0.4-6.7c-0.7-0.3-1.7-0.6-3.1-1
					c-1.4-0.4-3.4-0.6-6-0.6c-1.7,0-3.5,0.3-5.4,1c-1.8,0.7-3.5,1.7-5,3.1c-1.5,1.4-2.7,3.2-3.7,5.5c-1,2.2-1.4,4.9-1.4,8.1
					c0,2.7,0.4,5.2,1.2,7.4c0.8,2.2,1.9,4.1,3.3,5.6c1.4,1.5,3.1,2.8,5,3.6c2,0.9,4.1,1.3,6.5,1.3c2.2,0,4-0.2,5.4-0.4
					c1.4-0.3,2.5-0.6,3.2-0.8L146.4,80.1z"/>
				<path class="st0" d="M180.1,63.7c-0.6-2.2-1.5-4-2.7-5.6c-1.2-1.6-2.7-2.8-4.6-3.7c-1.8-0.9-4-1.4-6.4-1.4s-4.6,0.5-6.4,1.4
					c-1.8,0.9-3.4,2.2-4.5,3.7c-1.2,1.6-2.1,3.5-2.7,5.6c-0.6,2.2-0.9,4.5-0.9,7c0,2.5,0.3,4.9,0.9,7c0.6,2.2,1.5,4,2.7,5.6
					c1.2,1.6,2.7,2.8,4.5,3.7c1.8,0.9,4,1.4,6.4,1.4s4.6-0.5,6.4-1.4c1.8-0.9,3.4-2.2,4.6-3.7c1.2-1.6,2.1-3.5,2.7-5.6
					c0.6-2.2,0.9-4.5,0.9-7C181,68.2,180.7,65.8,180.1,63.7z M172.4,75.4c-0.2,1.5-0.6,2.7-1.1,3.8c-0.5,1.1-1.1,1.9-1.9,2.6
					c-0.8,0.6-1.8,0.9-3,0.9s-2.2-0.3-3-0.9c-0.8-0.6-1.5-1.5-1.9-2.6c-0.5-1.1-0.8-2.4-1.1-3.8c-0.2-1.5-0.3-3-0.3-4.6
					c0-1.6,0.1-3.2,0.3-4.6c0.2-1.5,0.6-2.7,1.1-3.8c0.5-1.1,1.1-1.9,1.9-2.6c0.8-0.6,1.8-0.9,3-0.9s2.2,0.3,3,0.9
					c0.8,0.6,1.5,1.5,1.9,2.6c0.5,1.1,0.8,2.4,1.1,3.8c0.2,1.5,0.3,3,0.3,4.6C172.8,72.4,172.7,73.9,172.4,75.4z"/>
				<path class="st0" d="M196.1,81.7V53.5H188v34.3h19.4v-6.2H196.1z"/>
				<path class="st0" d="M221.2,81.7V53.5h-8.1v34.3h19.4v-6.2H221.2z"/>
				<path class="st0" d="M246.1,81.9v-8.7h11.5v-6h-11.5v-7.7h12.1v-6h-19.8v34.3h20.4v-6H246.1z"/>
				<path class="st0" d="M280,68.2V74h4.5v7.8c-0.6,0.3-1.6,0.5-2.8,0.5c-1.5,0-2.9-0.3-4-0.9c-1.1-0.6-2.1-1.4-2.8-2.4
					c-0.8-1-1.3-2.2-1.7-3.6c-0.4-1.4-0.6-2.9-0.6-4.5c0-1,0.1-2.1,0.4-3.5c0.3-1.3,0.8-2.6,1.5-3.8c0.7-1.2,1.8-2.3,3.1-3.1
					c1.3-0.9,3.1-1.3,5.2-1.3c1.8,0,3.3,0.2,4.6,0.7c1.3,0.4,2.4,0.9,3.2,1.3l0.5-6.7c-1.1-0.3-2.3-0.6-3.8-0.9
					c-1.5-0.3-3.2-0.5-5.2-0.5c-3.3,0-6,0.5-8.3,1.5c-2.3,1-4.1,2.4-5.5,4.1c-1.4,1.7-2.4,3.6-3.1,5.7c-0.6,2.1-0.9,4.2-0.9,6.3
					c0,3.7,0.5,6.7,1.6,9c1.1,2.3,2.5,4.2,4.1,5.5c1.7,1.3,3.4,2.2,5.3,2.7c1.9,0.5,3.7,0.7,5.3,0.7c2.8,0,5.1-0.2,7.1-0.6
					c1.9-0.4,3.4-0.8,4.3-1.2V68.2H280z"/>
				<path class="st0" d="M307.4,81.9v-8.7h11.5v-6h-11.5v-7.7h12.1v-6h-19.8v34.3H320v-6H307.4z"/>
			</g>
		</g>
	</g>
</g>
</svg>
